<?xml version="1.0" standalone="no"?>
<!DOCTYPE svg PUBLIC "-//W3C//DTD SVG 20010904//EN"
 "http://www.w3.org/TR/2001/REC-SVG-20010904/DTD/svg10.dtd">
<svg version="1.0" xmlns="http://www.w3.org/2000/svg"
 width="702.000000pt" height="702.000000pt" viewBox="0 0 702.000000 702.000000"
 preserveAspectRatio="xMidYMid meet">
<metadata>
Created by potrace 1.14, written by Peter Selinger 2001-2017
</metadata>
<g transform="translate(0.000000,702.000000) scale(0.100000,-0.100000)"
fill="#000000" stroke="none">
<path d="M2250 3910 c0 -3 -190 -4 -421 -2 -356 2 -431 0 -483 -13 -129 -33
-229 -136 -255 -263 -7 -35 -11 -249 -11 -628 l0 -575 605 1 c366 1 605 5 605
11 0 5 10 9 23 9 13 0 28 5 35 12 7 7 12 9 12 5 0 -7 11 1 45 31 8 7 15 11 15
8 0 -3 14 8 30 24 17 16 30 34 30 40 0 5 4 10 9 10 5 0 13 9 16 20 4 11 11 17
17 14 7 -4 8 -2 4 5 -4 6 -2 18 4 26 7 8 9 15 5 15 -4 0 -3 6 3 13 6 7 12 30
14 51 1 20 6 40 10 42 4 3 3 14 -2 25 -8 14 -7 19 1 19 8 0 9 4 0 13 -8 10 -7
17 1 25 9 9 9 12 -1 12 -11 0 -11 3 -1 15 9 11 9 15 1 15 -8 0 -9 5 -2 18 6
11 6 24 1 32 -5 9 -5 19 2 27 7 9 7 13 -2 13 -10 0 -10 3 0 15 10 12 10 15 0
15 -10 0 -10 3 0 15 9 11 9 15 1 15 -8 0 -9 6 -2 18 6 11 6 24 0 35 -7 12 -6
17 2 17 8 0 9 4 0 13 -8 10 -7 17 1 25 9 9 9 12 -1 12 -11 0 -11 3 -1 15 10
12 10 15 0 15 -10 0 -10 3 0 15 9 11 9 15 1 15 -8 0 -9 5 -2 17 6 11 6 24 0
35 -7 12 -6 18 2 18 8 0 9 4 0 13 -8 10 -7 17 1 25 9 9 9 12 -1 12 -11 0 -11
3 -1 15 9 11 9 15 1 15 -8 0 -9 5 -2 18 6 11 6 24 1 32 -5 9 -5 19 2 27 7 9 7
13 -2 13 -10 0 -10 3 0 15 10 12 10 15 0 15 -10 0 -10 3 0 15 9 11 9 15 1 15
-8 0 -9 6 -2 18 6 11 6 24 0 35 -7 12 -6 17 2 17 8 0 9 4 0 13 -8 10 -7 17 1
25 9 9 9 12 0 12 -9 0 -10 5 -3 18 6 11 6 24 0 35 -7 12 -6 17 2 17 8 0 9 4 0
13 -8 10 -7 17 1 25 9 9 9 12 0 12 -9 0 -10 5 -3 17 6 11 6 24 0 35 -7 12 -6
18 2 18 8 0 9 4 0 13 -8 10 -7 17 1 25 9 9 9 12 0 12 -7 0 -11 6 -9 12 1 8
-16 15 -50 18 -29 3 -53 3 -53 0 0 -3 -45 -3 -100 0 -55 3 -100 3 -100 0z
m-721 -345 c30 -15 41 -39 41 -92 0 -30 3 -33 30 -33 28 0 30 3 30 35 0 77 56
124 112 94 36 -19 45 -37 47 -94 1 -32 4 -35 31 -35 28 0 30 3 30 35 0 77 56
124 112 94 36 -19 47 -40 48 -86 0 -41 2 -43 29 -43 27 0 29 3 33 51 6 63 33
89 87 84 45 -4 70 -37 71 -91 0 -43 18 -62 39 -41 6 6 11 7 12 2 1 -17 7 -39
14 -57 4 -10 3 -18 -3 -18 -6 0 -7 -13 -2 -35 5 -24 4 -35 -4 -35 -6 0 -4 -5
4 -10 12 -8 12 -10 1 -10 -10 0 -11 -3 -2 -13 8 -10 7 -17 -1 -25 -7 -7 -8
-12 -3 -12 12 0 4 -464 -7 -476 -5 -4 -8 -3 -8 2 0 5 -187 9 -457 9 l-458 0 0
335 0 335 28 3 c25 3 27 7 27 46 0 33 6 49 26 70 30 30 53 32 93 11z"/>
<path d="M1459 3525 c-10 -10 -13 -28 -11 -50 4 -33 6 -35 43 -35 38 0 39 1
39 36 0 55 -38 82 -71 49z"/>
<path d="M1682 3528 c-7 -7 -12 -29 -12 -50 0 -38 0 -38 40 -38 40 0 40 0 40
38 0 40 -14 62 -40 62 -9 0 -21 -5 -28 -12z"/>
<path d="M1902 3528 c-7 -7 -12 -29 -12 -50 0 -38 0 -38 40 -38 40 0 40 0 40
38 0 40 -14 62 -40 62 -9 0 -21 -5 -28 -12z"/>
<path d="M2122 3528 c-7 -7 -12 -29 -12 -50 0 -38 0 -38 40 -38 40 0 40 0 40
38 0 40 -14 62 -40 62 -9 0 -21 -5 -28 -12z"/>
<path d="M1553 3402 c-161 -2 -163 -3 -163 -25 l0 -22 428 0 427 0 0 23 0 24
-265 1 c-146 1 -338 1 -427 -1z"/>
<path d="M1390 3058 l0 -258 128 0 c624 -2 726 0 733 12 4 7 6 16 3 20 -10 16
-9 358 1 358 6 0 3 5 -5 10 -8 5 -10 10 -4 10 12 0 11 41 -1 59 -3 6 0 11 7
11 9 0 9 3 -2 10 -12 8 -12 10 -1 10 8 0 11 3 7 8 -4 4 -201 7 -437 7 l-429 0
0 -257z m400 157 c27 -14 33 -14 60 0 31 16 77 20 97 7 19 -12 32 -58 28 -98
-8 -92 -92 -233 -147 -247 -18 -5 -32 4 -68 42 -49 53 -87 138 -96 217 -5 41
-2 53 15 72 26 26 69 29 111 7z"/>
<path d="M1716 3188 c-15 -8 -17 -18 -12 -61 8 -63 58 -169 93 -197 l26 -20
22 20 c33 31 83 138 91 193 10 76 -11 87 -92 46 -20 -11 -33 -7 -104 27 -3 1
-14 -2 -24 -8z"/>
<path d="M3130 3700 c-14 -4 -33 -6 -42 -4 -10 1 -18 -1 -18 -4 0 -4 -12 -8
-26 -9 -15 0 -30 -7 -35 -15 -5 -7 -9 -8 -9 -3 0 6 -16 -8 -35 -29 -19 -22
-32 -43 -29 -48 3 -4 0 -8 -7 -8 -6 0 -9 -8 -6 -20 3 -10 1 -20 -4 -22 -5 -2
-11 -21 -12 -43 -1 -22 -6 -46 -10 -52 -5 -8 -3 -13 3 -13 8 0 9 -7 5 -17 -8
-20 -8 -21 0 -78 3 -22 6 -50 7 -62 1 -13 6 -23 12 -23 5 0 7 -3 3 -6 -3 -4 1
-13 9 -21 8 -8 12 -18 9 -22 -5 -9 59 -63 90 -76 11 -4 28 -7 39 -6 13 2 16
-1 11 -11 -6 -10 -5 -10 4 -2 8 7 25 9 47 4 19 -5 34 -4 34 1 0 5 11 7 25 3
14 -3 25 -2 25 4 0 6 9 8 20 5 12 -3 20 0 20 6 0 7 5 9 10 6 6 -4 18 -1 27 7
12 9 15 9 9 1 -5 -9 -2 -11 9 -7 9 4 14 13 11 20 -3 8 -2 14 2 14 6 0 8 168 2
195 -1 6 -1 12 0 15 1 3 3 17 4 31 1 24 -2 27 -31 25 -18 -1 -33 2 -33 7 0 4
-9 3 -20 -3 -13 -7 -20 -7 -20 -1 0 7 -9 7 -25 1 -17 -6 -25 -6 -25 1 0 6 -6
7 -12 2 -7 -4 -21 -6 -30 -5 -13 2 -16 -1 -11 -14 5 -13 3 -15 -7 -9 -10 6
-11 4 -4 -6 4 -8 9 -24 10 -37 1 -22 14 -45 14 -25 0 6 11 8 25 5 14 -2 22 -8
19 -13 -3 -5 2 -6 11 -3 13 5 15 -3 14 -55 -1 -34 -6 -64 -10 -67 -5 -3 -9 1
-9 8 0 8 -3 9 -8 3 -9 -13 -52 -17 -52 -5 0 5 -7 7 -15 4 -18 -7 -68 23 -60
36 4 6 2 10 -2 10 -5 0 -9 8 -10 18 -1 9 -3 29 -6 45 -2 16 0 27 7 27 8 0 8 2
0 8 -12 7 -16 90 -4 107 3 6 6 24 5 42 -1 19 4 34 12 38 8 2 11 10 7 16 -4 7
-3 9 4 5 6 -3 13 -2 16 3 8 13 159 10 168 -3 5 -7 8 -6 8 3 0 11 3 11 15 1 9
-7 15 -8 15 -2 0 5 10 8 23 6 12 -2 16 -2 9 2 -6 3 -9 11 -5 17 4 7 8 26 10
44 2 27 -1 33 -17 33 -11 0 -20 6 -20 13 0 9 -3 8 -9 -2 -5 -7 -11 -9 -14 -4
-4 6 -22 9 -42 8 -19 -1 -35 3 -35 8 0 5 -6 4 -14 -2 -8 -7 -16 -8 -18 -3 -1
5 -14 6 -28 2z"/>
<path d="M5115 3699 c-4 -6 -13 -8 -20 -5 -8 3 -16 0 -19 -7 -3 -9 -5 -9 -5 0
-1 7 -10 9 -28 4 -22 -6 -27 -13 -28 -44 -1 -21 3 -37 9 -37 8 0 8 -3 0 -8
-11 -8 -14 -286 -2 -297 4 -4 2 -15 -4 -25 -9 -14 -9 -22 1 -33 8 -10 9 -17 1
-22 -6 -3 -8 -25 -5 -51 3 -31 1 -43 -7 -38 -6 4 -8 3 -4 -4 6 -10 25 -13 81
-12 51 1 57 1 51 7 -3 3 -1 12 5 19 7 8 7 14 -1 19 -8 5 -8 11 1 21 9 11 9 14
-1 14 -10 0 -10 3 0 15 8 9 8 15 2 15 -7 0 -8 10 -2 30 6 21 5 30 -3 30 -7 0
-6 4 3 10 12 8 12 10 1 10 -29 0 0 13 34 15 38 2 55 -11 58 -44 0 -11 5 -17 9
-15 5 3 11 -8 14 -25 4 -17 13 -36 20 -42 8 -6 11 -15 8 -20 -3 -5 -1 -9 4 -9
6 0 12 -10 16 -23 4 -18 13 -23 42 -25 21 -2 41 -5 46 -8 4 -3 8 -1 8 4 0 5
11 7 25 4 20 -3 25 0 25 17 0 11 -4 21 -10 21 -5 0 -10 7 -10 15 0 8 -4 15
-10 15 -5 0 -10 6 -10 13 0 7 -9 23 -20 35 -12 12 -17 22 -13 22 4 1 -2 9 -14
19 -12 10 -19 21 -16 25 4 3 2 6 -3 6 -5 0 -10 9 -11 20 -1 11 4 20 12 20 18
0 86 70 79 81 -3 5 -1 9 5 9 5 0 8 9 6 20 -2 11 1 22 7 26 6 4 5 10 -3 15 -8
5 -9 9 -3 9 11 0 11 24 0 52 -4 9 -5 22 -1 28 3 5 -1 13 -9 16 -9 3 -16 10
-16 16 0 23 -71 67 -115 70 -14 1 -25 7 -25 13 0 6 -3 7 -8 0 -9 -13 -32 -18
-32 -7 0 5 -10 8 -22 6 -13 -1 -23 -3 -23 -4 0 -1 -15 -3 -33 -5 -18 -2 -30 1
-27 6 4 5 4 9 1 9 -3 0 -8 -5 -11 -11z m102 -104 c13 0 23 4 23 10 0 5 4 4 9
-3 4 -8 11 -13 15 -12 20 6 48 -10 43 -24 -3 -8 -2 -18 3 -21 6 -3 6 -15 0
-30 -7 -18 -6 -25 3 -26 9 0 9 -2 0 -6 -7 -2 -13 -13 -13 -24 0 -26 -30 -36
-98 -32 -57 3 -79 17 -60 40 7 9 7 13 -1 13 -9 0 -9 5 -1 20 8 15 8 20 -1 20
-8 0 -8 4 1 15 7 8 8 15 3 15 -6 0 -8 11 -5 25 2 14 8 22 12 20 5 -3 11 -1 15
5 4 6 11 7 18 3 6 -4 21 -7 34 -8z"/>
<path d="M3555 3694 c-5 -2 -30 -4 -54 -6 -44 -3 -45 -4 -46 -41 0 -20 3 -37
8 -37 4 0 3 -10 -4 -21 -8 -16 -8 -20 1 -14 9 6 9 2 0 -16 -10 -17 -10 -24 -2
-27 9 -3 9 -9 2 -23 -8 -13 -7 -19 0 -19 8 0 8 -6 0 -20 -8 -15 -8 -20 2 -20
10 0 10 -2 -1 -9 -9 -6 -10 -11 -2 -15 6 -4 8 -12 4 -19 -10 -16 -10 -57 0
-57 4 0 3 -9 -3 -20 -8 -15 -8 -20 2 -20 8 0 9 -3 3 -8 -11 -8 -13 -47 -2 -58
4 -4 2 -13 -4 -21 -9 -10 -8 -13 2 -13 9 0 10 -3 4 -8 -14 -10 -17 -32 -4 -32
8 0 7 -5 -1 -15 -10 -12 -10 -19 -2 -27 7 -7 12 -8 12 -4 0 5 7 3 15 -4 12
-10 15 -10 15 0 0 9 4 9 13 2 7 -6 18 -7 26 -2 8 4 20 6 26 4 7 -3 15 2 18 10
4 9 1 16 -6 16 -8 0 -8 3 -2 8 14 9 13 125 0 134 -7 5 -7 8 0 8 6 0 10 11 10
25 0 14 -4 25 -8 25 -5 0 -5 4 -2 10 10 17 14 50 6 50 -4 0 -8 7 -8 15 0 8 3
15 6 15 3 0 7 11 7 25 1 14 -2 25 -8 25 -5 0 -6 5 -2 12 12 19 11 141 -1 157
-7 11 -7 13 1 8 6 -3 11 0 11 8 0 8 -4 12 -8 9 -4 -2 -9 0 -11 4 -1 5 -7 8
-13 6z"/>
<path d="M3760 3689 c0 -3 -10 -5 -22 -5 -24 1 -32 -27 -14 -52 6 -8 6 -16 0
-20 -11 -9 -15 -84 -4 -77 5 3 5 -8 0 -24 -5 -19 -4 -33 3 -40 7 -7 7 -11 1
-11 -6 0 -11 -7 -11 -15 0 -8 5 -15 11 -15 6 0 4 -5 -4 -10 -13 -9 -13 -10 0
-10 9 0 11 -3 5 -8 -14 -10 -15 -42 -2 -42 8 0 7 -4 -1 -12 -8 -8 -8 -17 -1
-31 8 -14 8 -18 0 -13 -13 9 -14 4 -1 -28 5 -14 5 -28 1 -31 -10 -6 -9 -24 2
-42 5 -7 4 -13 -1 -13 -13 0 -10 -33 3 -42 6 -5 5 -8 -3 -8 -7 0 -10 -5 -7
-11 4 -6 13 -8 21 -5 8 3 14 1 14 -4 0 -6 10 -6 27 1 16 6 29 6 32 0 4 -6 12
-5 22 2 18 14 22 107 5 107 -7 0 -7 3 -1 8 6 4 10 14 10 22 0 8 -4 18 -10 22
-6 5 -5 8 3 8 9 0 10 5 3 18 -15 28 0 41 52 46 31 3 45 1 40 -7 -4 -6 -1 -7 7
-2 7 5 31 9 52 10 34 2 69 15 39 15 -8 0 -9 6 -4 18 5 9 8 24 7 32 -1 8 -2 21
-3 28 0 7 -5 10 -11 7 -5 -3 -10 -2 -10 3 0 5 -7 9 -15 9 -8 0 -15 -3 -15 -7
0 -9 -32 -6 -48 4 -7 4 -12 2 -12 -5 0 -8 -4 -8 -12 -1 -21 17 -24 17 -41 3
-17 -13 -18 -12 -21 22 -1 6 -5 15 -11 19 -7 5 -6 8 1 8 6 0 10 16 9 35 -1 19
2 32 6 29 5 -3 9 0 9 7 0 8 4 8 15 -1 8 -7 15 -8 15 -3 0 12 38 14 45 2 4 -5
14 -5 26 1 13 8 19 7 19 0 0 -7 6 -8 19 0 13 6 22 7 26 0 4 -6 13 -5 25 2 14
9 16 17 10 34 -6 13 -4 26 3 33 9 9 8 14 -3 22 -13 9 -13 10 0 6 10 -2 15 -16
15 -38 0 -19 4 -40 9 -48 7 -10 6 -12 -4 -6 -9 5 -11 4 -6 -3 5 -9 13 -9 27
-2 14 8 19 7 19 -1 0 -8 4 -9 13 0 10 8 17 7 25 -1 9 -9 12 -9 12 0 0 10 5 10
21 1 17 -8 20 -8 14 1 -6 9 -3 10 10 2 20 -11 28 -52 11 -52 -7 0 -7 -3 -1 -8
12 -8 14 -132 2 -132 -5 0 -5 -6 -1 -12 5 -7 7 -68 6 -136 l-3 -123 54 2 c29
1 59 -1 67 -6 8 -5 11 -4 7 1 -3 6 -2 16 3 24 5 9 5 19 -2 27 -8 10 -7 13 3
13 9 0 10 3 3 8 -13 9 -13 124 1 134 6 5 6 8 -1 8 -10 0 -13 62 -4 80 1 3 1
10 0 15 -8 33 -5 115 4 115 6 0 5 4 -2 8 -7 5 -10 16 -6 25 4 12 11 14 30 7
16 -6 24 -6 24 1 0 6 7 6 20 -1 11 -6 20 -7 20 -2 0 4 15 6 33 4 l33 -4 -1 51
c-1 28 -4 53 -7 56 -6 6 -402 9 -416 3 -4 -2 -80 -1 -170 2 -89 3 -162 2 -162
-1z"/>
<path d="M4650 3688 c0 -5 -8 -8 -17 -8 -15 0 -16 -2 -3 -10 13 -8 13 -10 0
-15 -9 -3 -16 -20 -17 -42 -1 -20 -5 -39 -10 -42 -4 -3 -9 -11 -10 -17 -7 -37
-13 -63 -22 -91 -5 -18 -7 -33 -3 -33 4 0 2 -4 -5 -8 -6 -4 -14 -23 -18 -42
-4 -19 -9 -47 -12 -62 -3 -15 -8 -26 -12 -23 -4 2 -7 -6 -6 -18 1 -12 -4 -34
-12 -49 -7 -16 -10 -28 -6 -28 4 0 2 -5 -4 -11 -6 -6 -9 -17 -7 -24 3 -7 0
-16 -6 -20 -20 -13 22 -35 44 -23 13 7 21 7 26 -2 6 -9 9 -9 15 0 6 9 9 9 16
-1 6 -10 13 -2 25 26 9 22 17 49 19 61 3 33 14 43 40 38 15 -3 25 0 25 7 0 7
4 8 13 2 6 -5 29 -8 50 -7 35 1 40 -3 36 -32 0 -4 4 -10 10 -13 6 -4 12 -20
13 -37 3 -36 26 -56 50 -43 12 7 18 6 18 -2 0 -8 4 -9 13 0 8 6 17 8 20 5 3
-4 13 -4 21 -1 12 5 14 12 6 32 -5 14 -11 39 -12 55 -1 16 -5 27 -9 24 -3 -2
-10 15 -14 39 -4 23 -10 49 -12 57 -2 8 -5 21 -5 28 -1 6 -4 12 -8 12 -4 0 -7
6 -8 13 -6 44 -10 57 -21 71 -10 12 -11 16 -1 16 9 0 10 3 1 13 -6 8 -8 17 -4
20 3 4 2 7 -4 7 -10 0 -12 6 -16 57 -1 17 -5 29 -9 26 -8 -4 -12 12 -9 31 1 4
-3 14 -9 21 -6 7 -9 17 -8 21 2 5 -1 11 -7 14 -18 9 -135 16 -135 8z m76 -161
c-1 -12 2 -28 7 -34 5 -7 7 -20 3 -28 -3 -8 -1 -15 4 -15 6 0 10 -13 10 -30 0
-16 5 -30 11 -30 8 0 8 -4 0 -14 -9 -11 -9 -15 1 -19 7 -2 -11 -4 -41 -3 -43
1 -55 4 -57 18 -1 10 2 20 6 23 5 3 7 12 3 20 -3 9 -1 21 5 28 6 7 9 25 8 39
-2 15 2 29 9 32 7 2 11 16 10 31 -3 20 0 24 9 15 7 -5 12 -20 12 -33z"/>
<path d="M5812 3682 c-7 -9 -10 -11 -6 -3 5 9 3 12 -4 7 -6 -4 -8 -14 -5 -23
4 -10 2 -14 -4 -10 -5 3 -10 0 -11 -8 -1 -8 -3 -22 -4 -30 -1 -8 -6 -15 -11
-15 -6 0 -7 -3 -4 -7 4 -3 1 -13 -6 -21 -6 -9 -7 -13 -1 -9 6 3 1 -13 -11 -37
-12 -24 -25 -53 -28 -65 -7 -27 -27 -28 -27 -1 0 11 -5 20 -12 20 -6 0 -8 3
-5 7 4 3 2 12 -3 19 -6 6 -10 16 -8 20 1 5 -4 20 -11 32 -7 13 -10 26 -7 30 3
3 0 12 -8 21 -7 9 -18 30 -23 46 -9 29 -12 30 -76 31 -37 1 -67 0 -67 -2 0 -2
17 -38 37 -81 21 -43 37 -81 36 -85 -1 -3 4 -12 12 -18 8 -7 15 -21 15 -31 0
-11 5 -19 10 -19 6 0 10 -9 10 -20 0 -11 4 -20 8 -20 6 0 34 -61 37 -80 0 -3
4 -11 8 -17 5 -8 3 -13 -4 -13 -8 0 -8 -4 -1 -13 7 -8 7 -18 2 -27 -5 -9 -5
-19 2 -27 7 -9 7 -13 -1 -13 -13 0 -10 -22 4 -32 6 -5 5 -8 -4 -8 -10 0 -11
-3 -2 -14 8 -10 9 -16 1 -21 -23 -14 4 -25 65 -25 37 0 67 5 71 12 4 6 3 9 -2
5 -6 -3 -9 36 -9 94 0 54 3 99 7 99 4 0 5 9 3 20 -2 11 0 18 6 15 8 -6 13 8
10 28 0 4 3 7 8 7 8 0 17 21 26 58 2 8 12 23 22 34 10 11 17 22 16 24 -4 10
10 44 19 44 5 0 6 5 3 10 -3 6 -1 10 5 10 6 0 8 5 5 10 -3 6 2 22 13 38 37 53
35 59 -20 61 -28 1 -54 3 -57 6 -4 2 -13 -4 -19 -13z"/>
</g>
</svg>
